<svg width="24" height="24" viewBox="0 0 24 24" fill="none" xmlns="http://www.w3.org/2000/svg">
<path d="M7.80005 16.725C8.25062 16.025 9.73108 14.625 12.0483 14.625C14.3656 14.625 15.7817 16.025 16.2 16.725" stroke="#1F1F1F" stroke-linecap="round" stroke-linejoin="round"/>
<circle cx="12" cy="12" r="10" stroke="#1F1F1F"/>
<mask id="path-3-inside-1_760_4292" fill="white">
<path d="M15.4125 9.37496C16.1373 9.37496 16.725 9.96259 16.725 10.6875C16.725 11.4124 16.1373 12 15.4125 12C14.6876 12 14.1 11.4124 14.1 10.6875C14.1 9.96259 14.6876 9.37496 15.4125 9.37496Z"/>
</mask>
<path d="M15.4125 10.375C15.585 10.375 15.725 10.5149 15.725 10.6875L17.725 10.6875C17.725 9.41032 16.6896 8.37496 15.4125 8.37496L15.4125 10.375ZM15.725 10.6875C15.725 10.8601 15.585 11 15.4125 11L15.4125 13C16.6896 13 17.725 11.9646 17.725 10.6875L15.725 10.6875ZM15.4125 11C15.2399 11 15.1 10.8601 15.1 10.6875L13.1 10.6875C13.1 11.9646 14.1353 13 15.4125 13L15.4125 11ZM15.1 10.6875C15.1 10.5149 15.2399 10.375 15.4125 10.375L15.4125 8.37496C14.1353 8.37496 13.1 9.41032 13.1 10.6875L15.1 10.6875Z" fill="#1F1F1F" mask="url(#path-3-inside-1_760_4292)"/>
<mask id="path-5-inside-2_760_4292" fill="white">
<path d="M8.58748 9.37496C9.31233 9.37496 9.89994 9.96259 9.89994 10.6875C9.89994 11.4124 9.31233 12 8.58748 12C7.86263 12 7.27502 11.4124 7.27502 10.6875C7.27502 9.96259 7.86263 9.37496 8.58748 9.37496Z"/>
</mask>
<path d="M8.58748 10.375C8.76 10.375 8.89994 10.5148 8.89994 10.6875L10.8999 10.6875C10.8999 9.41035 9.86466 8.37496 8.58748 8.37496L8.58748 10.375ZM8.89994 10.6875C8.89994 10.8601 8.76 11 8.58748 11L8.58748 13C9.86466 13 10.8999 11.9646 10.8999 10.6875L8.89994 10.6875ZM8.58748 11C8.41496 11 8.27502 10.8601 8.27502 10.6875L6.27502 10.6875C6.27502 11.9646 7.3103 13 8.58748 13L8.58748 11ZM8.27502 10.6875C8.27502 10.5148 8.41496 10.375 8.58748 10.375L8.58748 8.37496C7.3103 8.37496 6.27502 9.41035 6.27502 10.6875L8.27502 10.6875Z" fill="#1F1F1F" mask="url(#path-5-inside-2_760_4292)"/>
<path d="M8.0625 7.2749L10.8625 9.4624" stroke="#1F1F1F" stroke-linecap="round" stroke-linejoin="round"/>
<path d="M16.025 7.2749L13.225 9.4624" stroke="#1F1F1F" stroke-linecap="round" stroke-linejoin="round"/>
</svg>
