<svg width="26" height="26" viewBox="0 0 26 26" fill="none" xmlns="http://www.w3.org/2000/svg">
<mask id="path-1-inside-1_760_4180" fill="white">
<path fill-rule="evenodd" clip-rule="evenodd" d="M4.33337 13.7221C4.33337 16.5142 6.59682 18.7777 9.38893 18.7777H20.9445C23.7366 18.7777 26 16.5142 26 13.7221C26 10.93 23.7366 8.66659 20.9445 8.66659C20.4334 8.66659 19.9401 8.74242 19.4751 8.88344C19.2215 6.32861 17.066 4.33325 14.4445 4.33325C11.8975 4.33325 9.79042 6.21673 9.44009 8.66684L9.38893 8.66659C6.59682 8.66659 4.33337 10.93 4.33337 13.7221Z"/>
</mask>
<path d="M19.4751 8.88344L18.48 8.9822L18.6002 10.1937L19.7653 9.8404L19.4751 8.88344ZM9.44009 8.66684L9.43511 9.66683L10.3067 9.67117L10.43 8.80839L9.44009 8.66684ZM9.38893 8.66659L9.39391 7.66659H9.38893V8.66659ZM9.38893 17.7777C7.14911 17.7777 5.33337 15.962 5.33337 13.7221H3.33337C3.33337 17.0665 6.04454 19.7777 9.38893 19.7777V17.7777ZM20.9445 17.7777H9.38893V19.7777H20.9445V17.7777ZM25 13.7221C25 15.962 23.1843 17.7777 20.9445 17.7777V19.7777C24.2889 19.7777 27 17.0665 27 13.7221H25ZM20.9445 9.66659C23.1843 9.66659 25 11.4823 25 13.7221H27C27 10.3777 24.2889 7.66659 20.9445 7.66659V9.66659ZM19.7653 9.8404C20.1372 9.7276 20.5328 9.66659 20.9445 9.66659V7.66659C20.334 7.66659 19.7429 7.75723 19.1849 7.92648L19.7653 9.8404ZM14.4445 5.33325C16.5469 5.33325 18.2767 6.9338 18.48 8.9822L20.4702 8.78467C20.1664 5.72343 17.5852 3.33325 14.4445 3.33325V5.33325ZM10.43 8.80839C10.7109 6.84385 12.4022 5.33325 14.4445 5.33325V3.33325C11.3928 3.33325 8.86992 5.5896 8.45016 8.52529L10.43 8.80839ZM9.38395 9.66657L9.43511 9.66683L9.44507 7.66685L9.39391 7.6666L9.38395 9.66657ZM5.33337 13.7221C5.33337 11.4823 7.14911 9.66659 9.38893 9.66659V7.66659C6.04454 7.66659 3.33337 10.3777 3.33337 13.7221H5.33337Z" fill="#1F1F1F" mask="url(#path-1-inside-1_760_4180)"/>
<mask id="path-3-inside-2_760_4180" fill="white">
<path fill-rule="evenodd" clip-rule="evenodd" d="M0 16.6111C0 19.4032 2.26345 21.6666 5.05556 21.6666H16.6111C19.4032 21.6666 21.6667 19.4032 21.6667 16.6111C21.6667 13.819 19.4032 11.5555 16.6111 11.5555C16.1001 11.5555 15.6067 11.6313 15.1417 11.7724C14.8882 9.21753 12.7327 7.22217 10.1111 7.22217C7.56413 7.22217 5.45705 9.10564 5.10672 11.5558L5.05556 11.5555C2.26345 11.5555 0 13.819 0 16.6111Z"/>
</mask>
<path fill-rule="evenodd" clip-rule="evenodd" d="M0 16.6111C0 19.4032 2.26345 21.6666 5.05556 21.6666H16.6111C19.4032 21.6666 21.6667 19.4032 21.6667 16.6111C21.6667 13.819 19.4032 11.5555 16.6111 11.5555C16.1001 11.5555 15.6067 11.6313 15.1417 11.7724C14.8882 9.21753 12.7327 7.22217 10.1111 7.22217C7.56413 7.22217 5.45705 9.10564 5.10672 11.5558L5.05556 11.5555C2.26345 11.5555 0 13.819 0 16.6111Z" fill="#F8F8F8"/>
<path d="M15.1417 11.7724L14.1466 11.8711L14.2669 13.0827L15.4319 12.7293L15.1417 11.7724ZM5.10672 11.5558L5.10174 12.5557L5.97328 12.5601L6.09665 11.6973L5.10672 11.5558ZM5.05556 11.5555L5.06053 10.5555H5.05556V11.5555ZM5.05556 20.6666C2.81573 20.6666 1 18.8509 1 16.6111H-1C-1 19.9554 1.71116 22.6666 5.05556 22.6666V20.6666ZM16.6111 20.6666H5.05556V22.6666H16.6111V20.6666ZM20.6667 16.6111C20.6667 18.8509 18.8509 20.6666 16.6111 20.6666V22.6666C19.9555 22.6666 22.6667 19.9554 22.6667 16.6111H20.6667ZM16.6111 12.5555C18.8509 12.5555 20.6667 14.3712 20.6667 16.6111H22.6667C22.6667 13.2667 19.9555 10.5555 16.6111 10.5555V12.5555ZM15.4319 12.7293C15.8039 12.6165 16.1995 12.5555 16.6111 12.5555V10.5555C16.0007 10.5555 15.4096 10.6461 14.8515 10.8154L15.4319 12.7293ZM10.1111 8.22217C12.2135 8.22217 13.9433 9.82271 14.1466 11.8711L16.1368 11.6736C15.833 8.61235 13.2518 6.22217 10.1111 6.22217V8.22217ZM6.09665 11.6973C6.37755 9.73276 8.06878 8.22217 10.1111 8.22217V6.22217C7.05947 6.22217 4.53655 8.47852 4.11679 11.4142L6.09665 11.6973ZM5.05058 12.5555L5.10174 12.5557L5.1117 10.5558L5.06053 10.5555L5.05058 12.5555ZM1 16.6111C1 14.3712 2.81573 12.5555 5.05556 12.5555V10.5555C1.71116 10.5555 -1 13.2667 -1 16.6111H1Z" fill="#1F1F1F" mask="url(#path-3-inside-2_760_4180)"/>
</svg>
