<svg width="36" height="36" viewBox="0 0 36 36" fill="none" xmlns="http://www.w3.org/2000/svg">
<mask id="path-1-inside-1_197_2206" fill="white">
<path fill-rule="evenodd" clip-rule="evenodd" d="M6 19C6 22.866 9.13401 26 13 26H29C32.866 26 36 22.866 36 19C36 15.134 32.866 12 29 12C28.2924 12 27.6093 12.105 26.9655 12.3003C26.6144 8.76281 23.6298 6 20 6C16.4734 6 13.5559 8.60789 13.0708 12.0004C13.0473 12.0001 13.0236 12 13 12C9.13401 12 6 15.134 6 19Z"/>
</mask>
<path d="M26.9655 12.3003L25.9704 12.399L26.0906 13.6106L27.2557 13.2572L26.9655 12.3003ZM13.0708 12.0004L13.0609 13.0003L13.9368 13.009L14.0608 12.1419L13.0708 12.0004ZM13 25C9.68629 25 7 22.3137 7 19H5C5 23.4183 8.58172 27 13 27V25ZM29 25H13V27H29V25ZM35 19C35 22.3137 32.3137 25 29 25V27C33.4183 27 37 23.4183 37 19H35ZM29 13C32.3137 13 35 15.6863 35 19H37C37 14.5817 33.4183 11 29 11V13ZM27.2557 13.2572C27.8065 13.0902 28.3918 13 29 13V11C28.193 11 27.4121 11.1198 26.6752 11.3433L27.2557 13.2572ZM20 7C23.1107 7 25.6695 9.36799 25.9704 12.399L27.9606 12.2015C27.5592 8.15763 24.149 5 20 5V7ZM14.0608 12.1419C14.4764 9.23501 16.9781 7 20 7V5C15.9687 5 12.6354 7.98077 12.0809 11.8588L14.0608 12.1419ZM13 13C13.0203 13 13.0406 13.0001 13.0609 13.0003L13.0807 11.0004C13.0539 11.0001 13.027 11 13 11V13ZM7 19C7 15.6863 9.68629 13 13 13V11C8.58172 11 5 14.5817 5 19H7Z" fill="#1F1F1F" mask="url(#path-1-inside-1_197_2206)"/>
<mask id="path-3-inside-2_197_2206" fill="white">
<path fill-rule="evenodd" clip-rule="evenodd" d="M0 23C0 26.866 3.13401 30 7 30H23C26.866 30 30 26.866 30 23C30 19.134 26.866 16 23 16C22.2924 16 21.6093 16.105 20.9655 16.3003C20.6144 12.7628 17.6298 10 14 10C10.4734 10 7.55592 12.6079 7.07084 16.0004C7.04725 16.0001 7.02364 16 7 16C3.13401 16 0 19.134 0 23Z"/>
</mask>
<path fill-rule="evenodd" clip-rule="evenodd" d="M0 23C0 26.866 3.13401 30 7 30H23C26.866 30 30 26.866 30 23C30 19.134 26.866 16 23 16C22.2924 16 21.6093 16.105 20.9655 16.3003C20.6144 12.7628 17.6298 10 14 10C10.4734 10 7.55592 12.6079 7.07084 16.0004C7.04725 16.0001 7.02364 16 7 16C3.13401 16 0 19.134 0 23Z" fill="#F8F8F8"/>
<path d="M20.9655 16.3003L19.9704 16.399L20.0906 17.6106L21.2557 17.2572L20.9655 16.3003ZM7.07084 16.0004L7.06093 17.0003L7.93679 17.009L8.06077 16.1419L7.07084 16.0004ZM7 29C3.68629 29 1 26.3137 1 23H-1C-1 27.4183 2.58172 31 7 31V29ZM23 29H7V31H23V29ZM29 23C29 26.3137 26.3137 29 23 29V31C27.4183 31 31 27.4183 31 23H29ZM23 17C26.3137 17 29 19.6863 29 23H31C31 18.5817 27.4183 15 23 15V17ZM21.2557 17.2572C21.8065 17.0902 22.3918 17 23 17V15C22.193 15 21.4121 15.1198 20.6752 15.3433L21.2557 17.2572ZM14 11C17.1107 11 19.6695 13.368 19.9704 16.399L21.9606 16.2015C21.5592 12.1576 18.149 9 14 9V11ZM8.06077 16.1419C8.47642 13.235 10.9781 11 14 11V9C9.96875 9 6.63542 11.9808 6.08091 15.8588L8.06077 16.1419ZM7 17C7.02028 17 7.04059 17.0001 7.06093 17.0003L7.08074 15.0004C7.05392 15.0001 7.027 15 7 15V17ZM1 23C1 19.6863 3.68629 17 7 17V15C2.58172 15 -1 18.5817 -1 23H1Z" fill="#1F1F1F" mask="url(#path-3-inside-2_197_2206)"/>
</svg>
