<svg width="24" height="24" viewBox="0 0 24 24" fill="none" xmlns="http://www.w3.org/2000/svg">
<circle cx="12" cy="12" r="10" stroke="#1F1F1F"/>
<path d="M9.375 18.5625C10.2917 17.0312 13.0187 13.9688 16.5937 13.9688" stroke="#1F1F1F" stroke-linecap="round" stroke-linejoin="round"/>
<mask id="path-3-inside-1_760_4297" fill="white">
<path d="M15.2812 9.37496C16.0061 9.37496 16.5937 9.96259 16.5937 10.6875C16.5937 11.4124 16.0061 12 15.2812 12C14.5564 12 13.9687 11.4124 13.9687 10.6875C13.9687 9.96259 14.5564 9.37496 15.2812 9.37496Z"/>
</mask>
<path d="M15.2812 10.375C15.4538 10.375 15.5937 10.5149 15.5937 10.6875L17.5937 10.6875C17.5937 9.41032 16.5584 8.37496 15.2812 8.37496L15.2812 10.375ZM15.5937 10.6875C15.5937 10.8601 15.4538 11 15.2812 11L15.2812 13C16.5584 13 17.5937 11.9646 17.5937 10.6875L15.5937 10.6875ZM15.2812 11C15.1087 11 14.9687 10.8601 14.9687 10.6875L12.9687 10.6875C12.9687 11.9646 14.0041 13 15.2812 13L15.2812 11ZM14.9687 10.6875C14.9687 10.5149 15.1087 10.375 15.2812 10.375L15.2812 8.37496C14.0041 8.37496 12.9687 9.41032 12.9687 10.6875L14.9687 10.6875Z" fill="#1F1F1F" mask="url(#path-3-inside-1_760_4297)"/>
<mask id="path-5-inside-2_760_4297" fill="white">
<path d="M8.71871 9.37496C9.44356 9.37496 10.0312 9.96259 10.0312 10.6875C10.0312 11.4124 9.44356 12 8.71871 12C7.99386 12 7.40625 11.4124 7.40625 10.6875C7.40625 9.96259 7.99386 9.37496 8.71871 9.37496Z"/>
</mask>
<path d="M8.71871 10.375C8.89123 10.375 9.03117 10.5148 9.03117 10.6875L11.0312 10.6875C11.0312 9.41035 9.99589 8.37496 8.71871 8.37496L8.71871 10.375ZM9.03117 10.6875C9.03117 10.8601 8.89123 11 8.71871 11L8.71871 13C9.99589 13 11.0312 11.9646 11.0312 10.6875L9.03117 10.6875ZM8.71871 11C8.54619 11 8.40625 10.8601 8.40625 10.6875L6.40625 10.6875C6.40625 11.9646 7.44153 13 8.71871 13L8.71871 11ZM8.40625 10.6875C8.40625 10.5148 8.54619 10.375 8.71871 10.375L8.71871 8.37496C7.44153 8.37496 6.40625 9.41035 6.40625 10.6875L8.40625 10.6875Z" fill="#1F1F1F" mask="url(#path-5-inside-2_760_4297)"/>
</svg>
