<svg width="37" height="36" viewBox="0 0 37 36" fill="none" xmlns="http://www.w3.org/2000/svg">
<mask id="path-1-inside-1_197_2209" fill="white">
<path fill-rule="evenodd" clip-rule="evenodd" d="M23.5 5.61125C23.5 5.88739 23.7239 6.11125 24 6.11125C24.2761 6.11125 24.5 5.88739 24.5 5.61125V3.44458C24.5 3.16844 24.2761 2.94458 24 2.94458C23.7239 2.94458 23.5 3.16844 23.5 3.44458V5.61125ZM18.6709 11.7864C19.9375 12.9219 20.788 14.5122 20.9655 16.3005C21.6093 16.1052 22.2924 16.0002 23 16.0002C25.3847 16.0002 27.4909 17.1927 28.7548 19.0138C29.6703 17.9304 30.2222 16.5297 30.2222 15.0001C30.2222 11.5637 27.4364 8.77791 24 8.77791C21.7395 8.77791 19.7606 9.98332 18.6709 11.7864ZM17.8758 11.1702C19.1527 9.13273 21.4181 7.77791 24 7.77791C27.9887 7.77791 31.2222 11.0114 31.2222 15.0001C31.2222 16.9009 30.4879 18.6302 29.2875 19.9198C29.7438 20.8493 30 21.8948 30 23.0002C30 26.8662 26.866 30.0002 23 30.0002H7C3.13401 30.0002 0 26.8662 0 23.0002C0 19.1342 3.13401 16.0002 7 16.0002C7.02364 16.0002 7.04725 16.0003 7.07084 16.0006C7.55592 12.6081 10.4734 10.0002 14 10.0002C15.4334 10.0002 16.7661 10.431 17.8758 11.1702ZM36.0556 15.0001C36.0556 15.2763 35.8317 15.5001 35.5556 15.5001H33.3889C33.1127 15.5001 32.8889 15.2763 32.8889 15.0001C32.8889 14.724 33.1127 14.5001 33.3889 14.5001H35.5556C35.8317 14.5001 36.0556 14.724 36.0556 15.0001ZM32.5246 23.5247C32.3293 23.72 32.0127 23.72 31.8175 23.5247L30.2854 21.9926C30.0901 21.7974 30.0901 21.4808 30.2854 21.2855C30.4807 21.0903 30.7972 21.0903 30.9925 21.2855L32.5246 22.8176C32.7198 23.0129 32.7198 23.3294 32.5246 23.5247ZM17.0075 8.71474C17.2028 8.91 17.5193 8.91 17.7146 8.71474C17.9099 8.51948 17.9099 8.2029 17.7146 8.00764L16.1825 6.47557C15.9873 6.28031 15.6707 6.28031 15.4754 6.47557C15.2802 6.67083 15.2802 6.98742 15.4754 7.18268L17.0075 8.71474ZM30.2854 8.00764C30.0901 8.2029 30.0901 8.51948 30.2854 8.71474C30.4807 8.91 30.7972 8.91 30.9925 8.71474L32.5246 7.18268C32.7198 6.98742 32.7198 6.67083 32.5246 6.47557C32.3293 6.28031 32.0127 6.28031 31.8175 6.47557L30.2854 8.00764Z"/>
</mask>
<path fill-rule="evenodd" clip-rule="evenodd" d="M23.5 5.61125C23.5 5.88739 23.7239 6.11125 24 6.11125C24.2761 6.11125 24.5 5.88739 24.5 5.61125V3.44458C24.5 3.16844 24.2761 2.94458 24 2.94458C23.7239 2.94458 23.5 3.16844 23.5 3.44458V5.61125ZM18.6709 11.7864C19.9375 12.9219 20.788 14.5122 20.9655 16.3005C21.6093 16.1052 22.2924 16.0002 23 16.0002C25.3847 16.0002 27.4909 17.1927 28.7548 19.0138C29.6703 17.9304 30.2222 16.5297 30.2222 15.0001C30.2222 11.5637 27.4364 8.77791 24 8.77791C21.7395 8.77791 19.7606 9.98332 18.6709 11.7864ZM17.8758 11.1702C19.1527 9.13273 21.4181 7.77791 24 7.77791C27.9887 7.77791 31.2222 11.0114 31.2222 15.0001C31.2222 16.9009 30.4879 18.6302 29.2875 19.9198C29.7438 20.8493 30 21.8948 30 23.0002C30 26.8662 26.866 30.0002 23 30.0002H7C3.13401 30.0002 0 26.8662 0 23.0002C0 19.1342 3.13401 16.0002 7 16.0002C7.02364 16.0002 7.04725 16.0003 7.07084 16.0006C7.55592 12.6081 10.4734 10.0002 14 10.0002C15.4334 10.0002 16.7661 10.431 17.8758 11.1702ZM36.0556 15.0001C36.0556 15.2763 35.8317 15.5001 35.5556 15.5001H33.3889C33.1127 15.5001 32.8889 15.2763 32.8889 15.0001C32.8889 14.724 33.1127 14.5001 33.3889 14.5001H35.5556C35.8317 14.5001 36.0556 14.724 36.0556 15.0001ZM32.5246 23.5247C32.3293 23.72 32.0127 23.72 31.8175 23.5247L30.2854 21.9926C30.0901 21.7974 30.0901 21.4808 30.2854 21.2855C30.4807 21.0903 30.7972 21.0903 30.9925 21.2855L32.5246 22.8176C32.7198 23.0129 32.7198 23.3294 32.5246 23.5247ZM17.0075 8.71474C17.2028 8.91 17.5193 8.91 17.7146 8.71474C17.9099 8.51948 17.9099 8.2029 17.7146 8.00764L16.1825 6.47557C15.9873 6.28031 15.6707 6.28031 15.4754 6.47557C15.2802 6.67083 15.2802 6.98742 15.4754 7.18268L17.0075 8.71474ZM30.2854 8.00764C30.0901 8.2029 30.0901 8.51948 30.2854 8.71474C30.4807 8.91 30.7972 8.91 30.9925 8.71474L32.5246 7.18268C32.7198 6.98742 32.7198 6.67083 32.5246 6.47557C32.3293 6.28031 32.0127 6.28031 31.8175 6.47557L30.2854 8.00764Z" fill="#F8F8F8"/>
<path d="M20.9655 16.3005L19.9704 16.3992L20.0906 17.6108L21.2557 17.2574L20.9655 16.3005ZM18.6709 11.7864L17.815 11.2692L17.3866 11.9781L18.0034 12.531L18.6709 11.7864ZM28.7548 19.0138L27.9332 19.584L28.6768 20.6554L29.5186 19.6593L28.7548 19.0138ZM17.8758 11.1702L17.3214 12.0025L18.1771 12.5725L18.7231 11.7013L17.8758 11.1702ZM29.2875 19.9198L28.5556 19.2384L28.0865 19.7424L28.3898 20.3604L29.2875 19.9198ZM7.07084 16.0006L7.06093 17.0005L7.93679 17.0092L8.06077 16.1421L7.07084 16.0006ZM32.5246 23.5247L31.8175 22.8176L31.8175 22.8176L32.5246 23.5247ZM30.2854 21.9926L29.5783 22.6997L29.5783 22.6997L30.2854 21.9926ZM30.2854 21.2855L29.5783 20.5784L29.5783 20.5784L30.2854 21.2855ZM30.9925 21.2855L31.6996 20.5784L31.6996 20.5784L30.9925 21.2855ZM32.5246 22.8176L31.8175 23.5247V23.5247L32.5246 22.8176ZM17.7146 8.71474L18.4217 9.42185L18.4217 9.42185L17.7146 8.71474ZM17.0075 8.71474L16.3004 9.42185L16.3004 9.42185L17.0075 8.71474ZM17.7146 8.00764L18.4217 7.30053L18.4217 7.30053L17.7146 8.00764ZM16.1825 6.47557L16.8897 5.76846L16.8896 5.76846L16.1825 6.47557ZM15.4754 6.47557L16.1825 7.18268V7.18268L15.4754 6.47557ZM30.2854 8.00764L30.9925 8.71474V8.71474L30.2854 8.00764ZM30.9925 8.71474L31.6996 9.42185V9.42185L30.9925 8.71474ZM32.5246 7.18268L31.8175 6.47557V6.47557L32.5246 7.18268ZM32.5246 6.47557L33.2317 5.76846V5.76846L32.5246 6.47557ZM31.8175 6.47557L31.1104 5.76846V5.76846L31.8175 6.47557ZM24 5.11125C24.2761 5.11125 24.5 5.3351 24.5 5.61125H22.5C22.5 6.43967 23.1716 7.11125 24 7.11125V5.11125ZM23.5 5.61125C23.5 5.3351 23.7239 5.11125 24 5.11125V7.11125C24.8284 7.11125 25.5 6.43967 25.5 5.61125H23.5ZM23.5 3.44458V5.61125H25.5V3.44458H23.5ZM24 3.94458C23.7239 3.94458 23.5 3.72072 23.5 3.44458H25.5C25.5 2.61615 24.8284 1.94458 24 1.94458V3.94458ZM24.5 3.44458C24.5 3.72072 24.2761 3.94458 24 3.94458V1.94458C23.1716 1.94458 22.5 2.61615 22.5 3.44458H24.5ZM24.5 5.61125V3.44458H22.5V5.61125H24.5ZM21.9606 16.2017C21.7575 14.1559 20.7843 12.338 19.3384 11.0418L18.0034 12.531C19.0907 13.5058 19.8184 14.8685 19.9704 16.3992L21.9606 16.2017ZM23 15.0002C22.193 15.0002 21.4121 15.12 20.6752 15.3435L21.2557 17.2574C21.8065 17.0904 22.3918 17.0002 23 17.0002V15.0002ZM29.5763 18.4437C28.1336 16.3648 25.7262 15.0002 23 15.0002V17.0002C25.0432 17.0002 26.8482 18.0205 27.9332 19.584L29.5763 18.4437ZM29.2222 15.0001C29.2222 16.2847 28.7597 17.4586 27.991 18.3684L29.5186 19.6593C30.5809 18.4021 31.2222 16.7747 31.2222 15.0001H29.2222ZM24 9.77791C26.8842 9.77791 29.2222 12.116 29.2222 15.0001H31.2222C31.2222 11.0114 27.9887 7.77791 24 7.77791V9.77791ZM19.5267 12.3036C20.4429 10.7877 22.104 9.77791 24 9.77791V7.77791C21.375 7.77791 19.0783 9.17892 17.815 11.2692L19.5267 12.3036ZM24 6.77791C21.0595 6.77791 18.4805 8.32218 17.0284 10.6392L18.7231 11.7013C19.8248 9.94328 21.7767 8.77791 24 8.77791V6.77791ZM32.2222 15.0001C32.2222 10.4591 28.541 6.77791 24 6.77791V8.77791C27.4364 8.77791 30.2222 11.5637 30.2222 15.0001H32.2222ZM30.0195 20.6011C31.3853 19.1338 32.2222 17.1636 32.2222 15.0001H30.2222C30.2222 16.6383 29.5905 18.1266 28.5556 19.2384L30.0195 20.6011ZM31 23.0002C31 21.7388 30.7073 20.5428 30.1852 19.4792L28.3898 20.3604C28.7803 21.1559 29 22.0509 29 23.0002H31ZM23 31.0002C27.4183 31.0002 31 27.4185 31 23.0002H29C29 26.3139 26.3137 29.0002 23 29.0002V31.0002ZM7 31.0002H23V29.0002H7V31.0002ZM-1 23.0002C-1 27.4185 2.58172 31.0002 7 31.0002V29.0002C3.68629 29.0002 1 26.3139 1 23.0002H-1ZM7 15.0002C2.58172 15.0002 -1 18.5819 -1 23.0002H1C1 19.6865 3.68629 17.0002 7 17.0002V15.0002ZM7.08074 15.0006C7.05392 15.0004 7.027 15.0002 7 15.0002V17.0002C7.02028 17.0002 7.04059 17.0003 7.06093 17.0005L7.08074 15.0006ZM14 9.00021C9.96875 9.00021 6.63542 11.981 6.08091 15.859L8.06077 16.1421C8.47642 13.2352 10.9781 11.0002 14 11.0002V9.00021ZM18.4302 10.338C17.1614 9.49278 15.6367 9.00021 14 9.00021V11.0002C15.23 11.0002 16.3708 11.3693 17.3214 12.0025L18.4302 10.338ZM35.5556 16.5001C36.384 16.5001 37.0556 15.8286 37.0556 15.0001H35.0556C35.0556 14.724 35.2794 14.5001 35.5556 14.5001V16.5001ZM33.3889 16.5001H35.5556V14.5001H33.3889V16.5001ZM31.8889 15.0001C31.8889 15.8286 32.5605 16.5001 33.3889 16.5001V14.5001C33.665 14.5001 33.8889 14.724 33.8889 15.0001H31.8889ZM33.3889 13.5001C32.5605 13.5001 31.8889 14.1717 31.8889 15.0001H33.8889C33.8889 15.2763 33.665 15.5001 33.3889 15.5001V13.5001ZM35.5556 13.5001H33.3889V15.5001H35.5556V13.5001ZM37.0556 15.0001C37.0556 14.1717 36.384 13.5001 35.5556 13.5001V15.5001C35.2794 15.5001 35.0556 15.2763 35.0556 15.0001H37.0556ZM31.1103 24.2318C31.6961 24.8176 32.6459 24.8176 33.2317 24.2318L31.8175 22.8176C32.0127 22.6223 32.3293 22.6223 32.5246 22.8176L31.1103 24.2318ZM29.5783 22.6997L31.1103 24.2318L32.5246 22.8176L30.9925 21.2855L29.5783 22.6997ZM29.5783 20.5784C28.9925 21.1642 28.9925 22.114 29.5783 22.6997L30.9925 21.2855C31.1878 21.4808 31.1878 21.7974 30.9925 21.9926L29.5783 20.5784ZM31.6996 20.5784C31.1138 19.9926 30.1641 19.9926 29.5783 20.5784L30.9925 21.9926C30.7972 22.1879 30.4807 22.1879 30.2854 21.9926L31.6996 20.5784ZM33.2317 22.1105L31.6996 20.5784L30.2854 21.9926L31.8175 23.5247L33.2317 22.1105ZM33.2317 24.2318C33.8175 23.646 33.8175 22.6963 33.2317 22.1105L31.8175 23.5247C31.6222 23.3294 31.6222 23.0129 31.8175 22.8176L33.2317 24.2318ZM17.0075 8.00763C17.2028 7.81237 17.5193 7.81237 17.7146 8.00763L16.3004 9.42185C16.8862 10.0076 17.8359 10.0076 18.4217 9.42185L17.0075 8.00763ZM17.0075 8.71474C16.8122 8.51948 16.8122 8.2029 17.0075 8.00764L18.4217 9.42185C19.0075 8.83606 19.0075 7.88632 18.4217 7.30053L17.0075 8.71474ZM15.4754 7.18268L17.0075 8.71474L18.4217 7.30053L16.8897 5.76846L15.4754 7.18268ZM16.1825 7.18268C15.9873 7.37794 15.6707 7.37794 15.4754 7.18268L16.8896 5.76846C16.3039 5.18268 15.3541 5.18268 14.7683 5.76846L16.1825 7.18268ZM16.1825 6.47557C16.3778 6.67083 16.3778 6.98741 16.1825 7.18268L14.7683 5.76846C14.1825 6.35425 14.1825 7.304 14.7683 7.88978L16.1825 6.47557ZM17.7146 8.00763L16.1825 6.47557L14.7683 7.88978L16.3004 9.42185L17.7146 8.00763ZM30.9925 8.00763C31.1878 8.2029 31.1878 8.51948 30.9925 8.71474L29.5783 7.30053C28.9925 7.88631 28.9925 8.83606 29.5783 9.42185L30.9925 8.00763ZM30.2854 8.00763C30.4807 7.81237 30.7972 7.81237 30.9925 8.00763L29.5783 9.42185C30.1641 10.0076 31.1138 10.0076 31.6996 9.42185L30.2854 8.00763ZM31.8175 6.47557L30.2854 8.00764L31.6996 9.42185L33.2317 7.88979L31.8175 6.47557ZM31.8175 7.18268C31.6222 6.98742 31.6222 6.67083 31.8175 6.47557L33.2317 7.88979C33.8175 7.304 33.8175 6.35425 33.2317 5.76846L31.8175 7.18268ZM32.5246 7.18268C32.3293 7.37794 32.0127 7.37794 31.8175 7.18268L33.2317 5.76846C32.6459 5.18268 31.6961 5.18268 31.1104 5.76846L32.5246 7.18268ZM30.9925 8.71474L32.5246 7.18268L31.1104 5.76846L29.5783 7.30053L30.9925 8.71474Z" fill="#1F1F1F" mask="url(#path-1-inside-1_197_2209)"/>
</svg>
