<svg width="27" height="26" viewBox="0 0 27 26" fill="none" xmlns="http://www.w3.org/2000/svg">
<mask id="path-1-inside-1_760_4179" fill="white">
<path fill-rule="evenodd" clip-rule="evenodd" d="M16.8333 4.05236C16.8333 4.32851 17.0572 4.55236 17.3333 4.55236C17.6095 4.55236 17.8333 4.32851 17.8333 4.05236V2.48755C17.8333 2.21141 17.6095 1.98755 17.3333 1.98755C17.0572 1.98755 16.8333 2.21141 16.8333 2.48755V4.05236ZM13.6912 8.7082C14.4914 9.51072 15.0234 10.5807 15.1417 11.7724C15.6067 11.6313 16.1001 11.5555 16.6111 11.5555C18.2307 11.5555 19.6724 12.3171 20.5976 13.5016C21.1925 12.7748 21.5494 11.8457 21.5494 10.8332C21.5494 8.50477 19.6618 6.61718 17.3333 6.61718C15.7798 6.61718 14.4226 7.4574 13.6912 8.7082ZM12.9103 8.06718C13.8325 6.59566 15.4686 5.61718 17.3333 5.61718C20.2141 5.61718 22.5494 7.95248 22.5494 10.8332C22.5494 12.206 22.0191 13.4549 21.1521 14.3863C21.4816 15.0576 21.6667 15.8127 21.6667 16.6111C21.6667 19.4032 19.4032 21.6666 16.6111 21.6666H5.05556C2.26345 21.6666 0 19.4032 0 16.6111C0 13.819 2.26345 11.5555 5.05556 11.5555L5.10672 11.5558C5.45705 9.10565 7.56413 7.22217 10.1111 7.22217C11.1463 7.22217 12.1088 7.53332 12.9103 8.06718ZM26.179 10.8332C26.179 11.1094 25.9552 11.3332 25.679 11.3332H24.1142C23.8381 11.3332 23.6142 11.1094 23.6142 10.8332C23.6142 10.5571 23.8381 10.3332 24.1142 10.3332H25.679C25.9552 10.3332 26.179 10.5571 26.179 10.8332ZM23.5882 17.0881C23.3929 17.2833 23.0763 17.2833 22.8811 17.0881L21.7746 15.9816C21.5793 15.7863 21.5793 15.4697 21.7746 15.2745C21.9698 15.0792 22.2864 15.0792 22.4817 15.2745L23.5882 16.381C23.7834 16.5762 23.7834 16.8928 23.5882 17.0881ZM12.185 6.39199C12.3802 6.58725 12.6968 6.58725 12.8921 6.39199C13.0874 6.19672 13.0874 5.88014 12.8921 5.68488L11.7856 4.57839C11.5903 4.38313 11.2738 4.38313 11.0785 4.57839C10.8832 4.77365 10.8832 5.09023 11.0785 5.2855L12.185 6.39199ZM21.7746 5.68488C21.5793 5.88014 21.5793 6.19672 21.7746 6.39199C21.9698 6.58725 22.2864 6.58725 22.4817 6.39199L23.5882 5.2855C23.7834 5.09023 23.7834 4.77365 23.5882 4.57839C23.3929 4.38313 23.0763 4.38313 22.8811 4.57839L21.7746 5.68488Z"/>
</mask>
<path fill-rule="evenodd" clip-rule="evenodd" d="M16.8333 4.05236C16.8333 4.32851 17.0572 4.55236 17.3333 4.55236C17.6095 4.55236 17.8333 4.32851 17.8333 4.05236V2.48755C17.8333 2.21141 17.6095 1.98755 17.3333 1.98755C17.0572 1.98755 16.8333 2.21141 16.8333 2.48755V4.05236ZM13.6912 8.7082C14.4914 9.51072 15.0234 10.5807 15.1417 11.7724C15.6067 11.6313 16.1001 11.5555 16.6111 11.5555C18.2307 11.5555 19.6724 12.3171 20.5976 13.5016C21.1925 12.7748 21.5494 11.8457 21.5494 10.8332C21.5494 8.50477 19.6618 6.61718 17.3333 6.61718C15.7798 6.61718 14.4226 7.4574 13.6912 8.7082ZM12.9103 8.06718C13.8325 6.59566 15.4686 5.61718 17.3333 5.61718C20.2141 5.61718 22.5494 7.95248 22.5494 10.8332C22.5494 12.206 22.0191 13.4549 21.1521 14.3863C21.4816 15.0576 21.6667 15.8127 21.6667 16.6111C21.6667 19.4032 19.4032 21.6666 16.6111 21.6666H5.05556C2.26345 21.6666 0 19.4032 0 16.6111C0 13.819 2.26345 11.5555 5.05556 11.5555L5.10672 11.5558C5.45705 9.10565 7.56413 7.22217 10.1111 7.22217C11.1463 7.22217 12.1088 7.53332 12.9103 8.06718ZM26.179 10.8332C26.179 11.1094 25.9552 11.3332 25.679 11.3332H24.1142C23.8381 11.3332 23.6142 11.1094 23.6142 10.8332C23.6142 10.5571 23.8381 10.3332 24.1142 10.3332H25.679C25.9552 10.3332 26.179 10.5571 26.179 10.8332ZM23.5882 17.0881C23.3929 17.2833 23.0763 17.2833 22.8811 17.0881L21.7746 15.9816C21.5793 15.7863 21.5793 15.4697 21.7746 15.2745C21.9698 15.0792 22.2864 15.0792 22.4817 15.2745L23.5882 16.381C23.7834 16.5762 23.7834 16.8928 23.5882 17.0881ZM12.185 6.39199C12.3802 6.58725 12.6968 6.58725 12.8921 6.39199C13.0874 6.19672 13.0874 5.88014 12.8921 5.68488L11.7856 4.57839C11.5903 4.38313 11.2738 4.38313 11.0785 4.57839C10.8832 4.77365 10.8832 5.09023 11.0785 5.2855L12.185 6.39199ZM21.7746 5.68488C21.5793 5.88014 21.5793 6.19672 21.7746 6.39199C21.9698 6.58725 22.2864 6.58725 22.4817 6.39199L23.5882 5.2855C23.7834 5.09023 23.7834 4.77365 23.5882 4.57839C23.3929 4.38313 23.0763 4.38313 22.8811 4.57839L21.7746 5.68488Z" fill="#F8F8F8"/>
<path d="M15.1417 11.7724L14.1466 11.8711L14.2669 13.0827L15.4319 12.7293L15.1417 11.7724ZM13.6912 8.7082L12.8279 8.20344L12.439 8.86861L12.9831 9.41427L13.6912 8.7082ZM20.5976 13.5016L19.8096 14.1172L20.5794 15.1028L21.3715 14.135L20.5976 13.5016ZM12.9103 8.06718L12.3559 8.89944L13.2116 9.46947L13.7576 8.59821L12.9103 8.06718ZM21.1521 14.3863L20.4201 13.705L19.951 14.2089L20.2544 14.8269L21.1521 14.3863ZM5.05556 11.5555L5.06053 10.5555H5.05556V11.5555ZM5.10672 11.5558L5.10174 12.5558L5.97328 12.5601L6.09665 11.6973L5.10672 11.5558ZM22.8811 17.0881L23.5882 16.381L23.5882 16.381L22.8811 17.0881ZM23.5882 17.0881L22.8811 16.381L22.8811 16.381L23.5882 17.0881ZM21.7746 15.9816L22.4817 15.2745L22.4817 15.2745L21.7746 15.9816ZM21.7746 15.2745L22.4817 15.9816L22.4817 15.9816L21.7746 15.2745ZM22.4817 15.2745L21.7746 15.9816L21.7746 15.9816L22.4817 15.2745ZM23.5882 16.381L22.8811 17.0881L22.8811 17.0881L23.5882 16.381ZM12.8921 6.39199L13.5992 7.09909L13.5992 7.09909L12.8921 6.39199ZM12.185 6.39199L11.4779 7.09909L11.4779 7.09909L12.185 6.39199ZM11.7856 4.57839L12.4927 3.87128L12.4927 3.87128L11.7856 4.57839ZM11.0785 4.57839L11.7856 5.2855L11.7856 5.2855L11.0785 4.57839ZM11.0785 5.2855L10.3714 5.9926L10.3714 5.9926L11.0785 5.2855ZM21.7746 6.39199L22.4817 5.68488L22.4817 5.68488L21.7746 6.39199ZM21.7746 5.68488L22.4817 6.39199L22.4817 6.39199L21.7746 5.68488ZM22.4817 6.39199L21.7746 5.68488L21.7746 5.68488L22.4817 6.39199ZM23.5882 5.2855L24.2953 5.9926L24.2953 5.9926L23.5882 5.2855ZM23.5882 4.57839L22.8811 5.2855V5.2855L23.5882 4.57839ZM22.8811 4.57839L22.174 3.87128L22.174 3.87128L22.8811 4.57839ZM17.3333 3.55236C17.6095 3.55236 17.8333 3.77622 17.8333 4.05236H15.8333C15.8333 4.88079 16.5049 5.55236 17.3333 5.55236V3.55236ZM16.8333 4.05236C16.8333 3.77622 17.0572 3.55236 17.3333 3.55236V5.55236C18.1618 5.55236 18.8333 4.88079 18.8333 4.05236H16.8333ZM16.8333 2.48755V4.05236H18.8333V2.48755H16.8333ZM17.3333 2.98755C17.0572 2.98755 16.8333 2.76369 16.8333 2.48755H18.8333C18.8333 1.65912 18.1618 0.987549 17.3333 0.987549V2.98755ZM17.8333 2.48755C17.8333 2.76369 17.6095 2.98755 17.3333 2.98755V0.987549C16.5049 0.987549 15.8333 1.65912 15.8333 2.48755H17.8333ZM17.8333 4.05236V2.48755H15.8333V4.05236H17.8333ZM16.1368 11.6736C15.995 10.2444 15.3565 8.96214 14.3994 8.00213L12.9831 9.41427C13.6262 10.0593 14.0519 10.9169 14.1466 11.8711L16.1368 11.6736ZM16.6111 10.5555C16.0007 10.5555 15.4096 10.6462 14.8515 10.8154L15.4319 12.7293C15.8039 12.6165 16.1995 12.5555 16.6111 12.5555V10.5555ZM21.3857 12.8861C20.2791 11.4693 18.5516 10.5555 16.6111 10.5555V12.5555C17.9098 12.5555 19.0657 13.1648 19.8096 14.1172L21.3857 12.8861ZM20.5494 10.8332C20.5494 11.6065 20.2778 12.3136 19.8238 12.8683L21.3715 14.135C22.1072 13.2361 22.5494 12.0849 22.5494 10.8332H20.5494ZM17.3333 7.61718C19.1095 7.61718 20.5494 9.05705 20.5494 10.8332H22.5494C22.5494 7.95248 20.2141 5.61718 17.3333 5.61718V7.61718ZM14.5545 9.21296C15.1139 8.25623 16.1495 7.61718 17.3333 7.61718V5.61718C15.4101 5.61718 13.7313 6.65858 12.8279 8.20344L14.5545 9.21296ZM17.3333 4.61718C15.11 4.61718 13.1603 5.78511 12.0629 7.53615L13.7576 8.59821C14.5047 7.40621 15.8272 6.61718 17.3333 6.61718V4.61718ZM23.5494 10.8332C23.5494 7.4002 20.7664 4.61718 17.3333 4.61718V6.61718C19.6618 6.61718 21.5494 8.50477 21.5494 10.8332H23.5494ZM21.8841 15.0677C22.9165 13.9586 23.5494 12.4687 23.5494 10.8332H21.5494C21.5494 11.9433 21.1217 12.9513 20.4201 13.705L21.8841 15.0677ZM22.6667 16.6111C22.6667 15.6566 22.4451 14.7511 22.0498 13.9457L20.2544 14.8269C20.5181 15.3642 20.6667 15.9688 20.6667 16.6111H22.6667ZM16.6111 22.6666C19.9555 22.6666 22.6667 19.9555 22.6667 16.6111H20.6667C20.6667 18.8509 18.8509 20.6666 16.6111 20.6666V22.6666ZM5.05556 22.6666H16.6111V20.6666H5.05556V22.6666ZM-1 16.6111C-1 19.9555 1.71116 22.6666 5.05556 22.6666V20.6666C2.81573 20.6666 1 18.8509 1 16.6111H-1ZM5.05556 10.5555C1.71116 10.5555 -1 13.2667 -1 16.6111H1C1 14.3712 2.81573 12.5555 5.05556 12.5555V10.5555ZM5.11169 10.5558L5.06053 10.5555L5.05058 12.5555L5.10174 12.5558L5.11169 10.5558ZM10.1111 6.22217C7.05947 6.22217 4.53655 8.47853 4.11678 11.4142L6.09665 11.6973C6.37755 9.73277 8.06878 8.22217 10.1111 8.22217V6.22217ZM13.4647 7.23492C12.5041 6.59508 11.3496 6.22217 10.1111 6.22217V8.22217C10.943 8.22217 11.7135 8.47155 12.3559 8.89944L13.4647 7.23492ZM25.679 12.3332C26.5074 12.3332 27.179 11.6617 27.179 10.8332H25.179C25.179 10.5571 25.4029 10.3332 25.679 10.3332V12.3332ZM24.1142 12.3332H25.679V10.3332H24.1142V12.3332ZM22.6142 10.8332C22.6142 11.6617 23.2858 12.3332 24.1142 12.3332V10.3332C24.3903 10.3332 24.6142 10.5571 24.6142 10.8332H22.6142ZM24.1142 9.33323C23.2858 9.33323 22.6142 10.0048 22.6142 10.8332H24.6142C24.6142 11.1094 24.3903 11.3332 24.1142 11.3332V9.33323ZM25.679 9.33323H24.1142V11.3332H25.679V9.33323ZM27.179 10.8332C27.179 10.0048 26.5074 9.33323 25.679 9.33323V11.3332C25.4029 11.3332 25.179 11.1094 25.179 10.8332H27.179ZM22.174 17.7952C22.7597 18.381 23.7095 18.381 24.2953 17.7952L22.8811 16.381C23.0763 16.1857 23.3929 16.1857 23.5882 16.381L22.174 17.7952ZM21.0675 16.6887L22.174 17.7952L23.5882 16.381L22.4817 15.2745L21.0675 16.6887ZM21.0675 14.5674C20.4817 15.1531 20.4817 16.1029 21.0675 16.6887L22.4817 15.2745C22.6769 15.4697 22.6769 15.7863 22.4817 15.9816L21.0675 14.5674ZM23.1888 14.5674C22.603 13.9816 21.6533 13.9816 21.0675 14.5674L22.4817 15.9816C22.2864 16.1768 21.9698 16.1768 21.7746 15.9816L23.1888 14.5674ZM24.2953 15.6739L23.1888 14.5674L21.7746 15.9816L22.8811 17.0881L24.2953 15.6739ZM24.2953 17.7952C24.8811 17.2094 24.8811 16.2596 24.2953 15.6739L22.8811 17.0881C22.6858 16.8928 22.6858 16.5762 22.8811 16.381L24.2953 17.7952ZM12.185 5.68488C12.3802 5.48962 12.6968 5.48962 12.8921 5.68488L11.4779 7.09909C12.0637 7.68488 13.0134 7.68488 13.5992 7.09909L12.185 5.68488ZM12.185 6.39199C11.9897 6.19672 11.9897 5.88014 12.185 5.68488L13.5992 7.09909C14.185 6.51331 14.185 5.56356 13.5992 4.97777L12.185 6.39199ZM11.0785 5.2855L12.185 6.39199L13.5992 4.97777L12.4927 3.87128L11.0785 5.2855ZM11.7856 5.2855C11.5903 5.48076 11.2738 5.48076 11.0785 5.2855L12.4927 3.87128C11.9069 3.2855 10.9572 3.28549 10.3714 3.87128L11.7856 5.2855ZM11.7856 4.57839C11.9809 4.77365 11.9809 5.09023 11.7856 5.2855L10.3714 3.87128C9.7856 4.45707 9.7856 5.40682 10.3714 5.9926L11.7856 4.57839ZM12.8921 5.68488L11.7856 4.57839L10.3714 5.9926L11.4779 7.09909L12.8921 5.68488ZM22.4817 5.68488C22.6769 5.88014 22.6769 6.19673 22.4817 6.39199L21.0675 4.97777C20.4817 5.56356 20.4817 6.51331 21.0675 7.09909L22.4817 5.68488ZM21.7746 5.68488C21.9698 5.48962 22.2864 5.48962 22.4817 5.68488L21.0675 7.09909C21.6533 7.68488 22.603 7.68488 23.1888 7.09909L21.7746 5.68488ZM22.8811 4.57839L21.7746 5.68488L23.1888 7.09909L24.2953 5.9926L22.8811 4.57839ZM22.8811 5.2855C22.6858 5.09023 22.6858 4.77365 22.8811 4.57839L24.2953 5.9926C24.8811 5.40682 24.8811 4.45707 24.2953 3.87128L22.8811 5.2855ZM23.5882 5.2855C23.3929 5.48076 23.0763 5.48076 22.8811 5.2855L24.2953 3.87128C23.7095 3.2855 22.7597 3.2855 22.174 3.87128L23.5882 5.2855ZM22.4817 6.39199L23.5882 5.2855L22.174 3.87128L21.0675 4.97777L22.4817 6.39199Z" fill="#1F1F1F" mask="url(#path-1-inside-1_760_4179)"/>
</svg>
