<svg width="26" height="26" viewBox="0 0 26 26" fill="none" xmlns="http://www.w3.org/2000/svg">
<mask id="path-1-inside-1_760_4181" fill="white">
<path fill-rule="evenodd" clip-rule="evenodd" d="M2.16663 13C2.16663 15.7921 4.43008 18.0555 7.22218 18.0555H18.7777C21.5698 18.0555 23.8333 15.7921 23.8333 13C23.8333 10.2079 21.5698 7.94442 18.7777 7.94442C18.2667 7.94442 17.7733 8.02025 17.3083 8.16127C17.0548 5.60645 14.8993 3.61108 12.2777 3.61108C9.73075 3.61108 7.62368 5.49456 7.27334 7.94467L7.22218 7.94442C4.43008 7.94442 2.16663 10.2079 2.16663 13Z"/>
</mask>
<path d="M17.3083 8.16127L16.3132 8.26003L16.4335 9.47157L17.5986 9.11823L17.3083 8.16127ZM7.27334 7.94467L7.26836 8.94466L8.13991 8.949L8.26327 8.08622L7.27334 7.94467ZM7.22218 7.94442L7.22716 6.94442H7.22218V7.94442ZM7.22218 17.0555C4.98236 17.0555 3.16663 15.2398 3.16663 13H1.16663C1.16663 16.3444 3.87779 19.0555 7.22218 19.0555V17.0555ZM18.7777 17.0555H7.22218V19.0555H18.7777V17.0555ZM22.8333 13C22.8333 15.2398 21.0176 17.0555 18.7777 17.0555V19.0555C22.1221 19.0555 24.8333 16.3444 24.8333 13H22.8333ZM18.7777 8.94442C21.0176 8.94442 22.8333 10.7602 22.8333 13H24.8333C24.8333 9.65558 22.1221 6.94442 18.7777 6.94442V8.94442ZM17.5986 9.11823C17.9705 9.00543 18.3661 8.94442 18.7777 8.94442V6.94442C18.1673 6.94442 17.5762 7.03506 17.0181 7.20431L17.5986 9.11823ZM12.2777 4.61108C14.3801 4.61108 16.1099 6.21163 16.3132 8.26003L18.3035 8.06251C17.9996 5.00126 15.4184 2.61108 12.2777 2.61108V4.61108ZM8.26327 8.08622C8.54418 6.12168 10.2354 4.61108 12.2777 4.61108V2.61108C9.22609 2.61108 6.70318 4.86744 6.28341 7.80312L8.26327 8.08622ZM7.2172 8.9444L7.26836 8.94466L7.27832 6.94468L7.22716 6.94443L7.2172 8.9444ZM3.16663 13C3.16663 10.7602 4.98236 8.94442 7.22218 8.94442V6.94442C3.87779 6.94442 1.16663 9.65558 1.16663 13H3.16663Z" fill="#1F1F1F" mask="url(#path-1-inside-1_760_4181)"/>
<path d="M11.9166 24.1944L13.3611 22.75" stroke="#1F1F1F" stroke-linecap="round"/>
<path d="M11.1945 20.9444L12.6389 19.5" stroke="#1F1F1F" stroke-linecap="round"/>
<path d="M15.8889 20.9444L17.3334 19.5" stroke="#1F1F1F" stroke-linecap="round"/>
<path d="M7.22218 24.1944L8.66663 22.75" stroke="#1F1F1F" stroke-linecap="round"/>
<path d="M6.50001 20.9444L7.94446 19.5" stroke="#1F1F1F" stroke-linecap="round"/>
</svg>
