<svg width="24" height="24" viewBox="0 0 24 24" fill="none" xmlns="http://www.w3.org/2000/svg">
<circle cx="12" cy="12" r="10" stroke="#1F1F1F"/>
<mask id="path-2-inside-1_760_4295" fill="white">
<path d="M15.4125 7.8C16.1373 7.8 16.725 8.38764 16.725 9.11253C16.725 9.83741 16.1373 10.425 15.4125 10.425C14.6876 10.425 14.1 9.83741 14.1 9.11253C14.1 8.38764 14.6876 7.8 15.4125 7.8Z"/>
</mask>
<path d="M15.4125 8.8C15.585 8.8 15.725 8.93991 15.725 9.11253L17.725 9.11253C17.725 7.83537 16.6896 6.8 15.4125 6.8L15.4125 8.8ZM15.725 9.11253C15.725 9.28514 15.585 9.42505 15.4125 9.42505L15.4125 11.425C16.6896 11.425 17.725 10.3897 17.725 9.11253L15.725 9.11253ZM15.4125 9.42505C15.2399 9.42505 15.1 9.28514 15.1 9.11253L13.1 9.11253C13.1 10.3897 14.1353 11.425 15.4125 11.425L15.4125 9.42505ZM15.1 9.11253C15.1 8.93991 15.2399 8.8 15.4125 8.8L15.4125 6.8C14.1353 6.8 13.1 7.83537 13.1 9.11253L15.1 9.11253Z" fill="#1F1F1F" mask="url(#path-2-inside-1_760_4295)"/>
<mask id="path-4-inside-2_760_4295" fill="white">
<path d="M8.58748 7.8C9.31233 7.8 9.89994 8.38764 9.89994 9.11253C9.89994 9.83741 9.31233 10.425 8.58748 10.425C7.86263 10.425 7.27502 9.83741 7.27502 9.11253C7.27502 8.38764 7.86263 7.8 8.58748 7.8Z"/>
</mask>
<path d="M8.58748 8.8C8.76 8.8 8.89994 8.93988 8.89994 9.11253L10.8999 9.11253C10.8999 7.8354 9.86466 6.8 8.58748 6.8L8.58748 8.8ZM8.89994 9.11253C8.89994 9.28517 8.76 9.42505 8.58748 9.42505L8.58748 11.425C9.86466 11.425 10.8999 10.3897 10.8999 9.11253L8.89994 9.11253ZM8.58748 9.42505C8.41496 9.42505 8.27502 9.28517 8.27502 9.11253L6.27502 9.11253C6.27502 10.3897 7.3103 11.425 8.58748 11.425L8.58748 9.42505ZM8.27502 9.11253C8.27502 8.93988 8.41496 8.8 8.58748 8.8L8.58748 6.8C7.3103 6.8 6.27502 7.8354 6.27502 9.11253L8.27502 9.11253Z" fill="#1F1F1F" mask="url(#path-4-inside-2_760_4295)"/>
<path d="M6.09977 12.8012C5.79352 13.3316 5.38781 13.451 4.88263 13.1594C4.37744 12.8677 4.27798 12.4566 4.58423 11.9262C4.9225 11.3403 6.10763 11.0376 6.10763 11.0376C6.10763 11.0376 6.43805 12.2153 6.09977 12.8012Z" fill="#1F1F1F"/>
<path d="M19.5312 11.926C19.8374 12.4564 19.738 12.8674 19.2328 13.1591C18.7276 13.4508 18.3219 13.3314 18.0156 12.801C17.6774 12.215 18.0078 11.0374 18.0078 11.0374C18.0078 11.0374 19.1929 11.34 19.5312 11.926Z" fill="#1F1F1F"/>
<path d="M7.79993 16.725C8.2505 16.025 9.73096 14.625 12.0482 14.625C14.3654 14.625 15.7815 16.025 16.1999 16.725" stroke="#1F1F1F" stroke-linecap="round" stroke-linejoin="round"/>
</svg>
