<svg width="26" height="26" viewBox="0 0 26 26" fill="none" xmlns="http://www.w3.org/2000/svg">
<path d="M7.94446 19.5V20.5833" stroke="#1F1F1F" stroke-linecap="round"/>
<path d="M8.41357 20.3125L7.47538 19.7708" stroke="#1F1F1F" stroke-linecap="round"/>
<path d="M8.41357 19.7708L7.47538 20.3124" stroke="#1F1F1F" stroke-linecap="round"/>
<path d="M12.7468 19.5V20.5833" stroke="#1F1F1F" stroke-linecap="round"/>
<path d="M13.2159 20.3125L12.2777 19.7708" stroke="#1F1F1F" stroke-linecap="round"/>
<path d="M13.2159 19.7708L12.2777 20.3124" stroke="#1F1F1F" stroke-linecap="round"/>
<path d="M9.85791 22.3889V23.4722" stroke="#1F1F1F" stroke-linecap="round"/>
<path d="M10.327 23.2014L9.38883 22.6597" stroke="#1F1F1F" stroke-linecap="round"/>
<path d="M10.327 22.6597L9.38883 23.2013" stroke="#1F1F1F" stroke-linecap="round"/>
<path d="M14.6603 22.3889V23.4722" stroke="#1F1F1F" stroke-linecap="round"/>
<path d="M15.1294 23.2014L14.1912 22.6597" stroke="#1F1F1F" stroke-linecap="round"/>
<path d="M15.1294 22.6597L14.1912 23.2013" stroke="#1F1F1F" stroke-linecap="round"/>
<path d="M17.5492 19.5V20.5833" stroke="#1F1F1F" stroke-linecap="round"/>
<path d="M18.0183 20.3125L17.0801 19.7708" stroke="#1F1F1F" stroke-linecap="round"/>
<path d="M18.0183 19.7708L17.0801 20.3124" stroke="#1F1F1F" stroke-linecap="round"/>
<mask id="path-16-inside-1_760_4182" fill="white">
<path fill-rule="evenodd" clip-rule="evenodd" d="M2.16663 13C2.16663 15.7921 4.43008 18.0555 7.22218 18.0555H18.7777C21.5698 18.0555 23.8333 15.7921 23.8333 13C23.8333 10.2079 21.5698 7.94442 18.7777 7.94442C18.2667 7.94442 17.7733 8.02025 17.3083 8.16127C17.0548 5.60645 14.8993 3.61108 12.2777 3.61108C9.73075 3.61108 7.62368 5.49456 7.27334 7.94467L7.22218 7.94442C4.43008 7.94442 2.16663 10.2079 2.16663 13Z"/>
</mask>
<path d="M17.3083 8.16127L16.3132 8.26003L16.4335 9.47157L17.5986 9.11823L17.3083 8.16127ZM7.27334 7.94467L7.26836 8.94466L8.13991 8.949L8.26327 8.08622L7.27334 7.94467ZM7.22218 7.94442L7.22716 6.94442H7.22218V7.94442ZM7.22218 17.0555C4.98236 17.0555 3.16663 15.2398 3.16663 13H1.16663C1.16663 16.3444 3.87779 19.0555 7.22218 19.0555V17.0555ZM18.7777 17.0555H7.22218V19.0555H18.7777V17.0555ZM22.8333 13C22.8333 15.2398 21.0176 17.0555 18.7777 17.0555V19.0555C22.1221 19.0555 24.8333 16.3444 24.8333 13H22.8333ZM18.7777 8.94442C21.0176 8.94442 22.8333 10.7602 22.8333 13H24.8333C24.8333 9.65558 22.1221 6.94442 18.7777 6.94442V8.94442ZM17.5986 9.11823C17.9705 9.00543 18.3661 8.94442 18.7777 8.94442V6.94442C18.1673 6.94442 17.5762 7.03506 17.0181 7.20431L17.5986 9.11823ZM12.2777 4.61108C14.3801 4.61108 16.1099 6.21163 16.3132 8.26003L18.3035 8.06251C17.9996 5.00126 15.4184 2.61108 12.2777 2.61108V4.61108ZM8.26327 8.08622C8.54418 6.12168 10.2354 4.61108 12.2777 4.61108V2.61108C9.22609 2.61108 6.70318 4.86744 6.28341 7.80312L8.26327 8.08622ZM7.2172 8.9444L7.26836 8.94466L7.27832 6.94468L7.22716 6.94443L7.2172 8.9444ZM3.16663 13C3.16663 10.7602 4.98236 8.94442 7.22218 8.94442V6.94442C3.87779 6.94442 1.16663 9.65558 1.16663 13H3.16663Z" fill="#1F1F1F" mask="url(#path-16-inside-1_760_4182)"/>
</svg>
