<svg width="24" height="24" viewBox="0 0 24 24" fill="none" xmlns="http://www.w3.org/2000/svg">
<circle cx="12" cy="12" r="10" stroke="#1F1F1F"/>
<path fill-rule="evenodd" clip-rule="evenodd" d="M13.7231 16.8206C13.7465 16.9972 13.8042 17.1723 13.8989 17.3362C14.2855 18.0058 15.1417 18.2353 15.8113 17.8487C16.4809 17.4621 16.7103 16.6058 16.3237 15.9362C16.1996 15.7213 16.0271 15.5517 15.828 15.4333C15.2418 16.053 14.5193 16.5275 13.7231 16.8206ZM15.4577 16.4362C15.5682 16.6276 15.5026 16.8722 15.3113 16.9826C15.12 17.0931 14.8754 17.0276 14.7649 16.8362C14.6544 16.6449 14.72 16.4003 14.9113 16.2898C15.1026 16.1794 15.3473 16.2449 15.4577 16.4362Z" fill="#1F1F1F"/>
<path d="M16 15C15.5709 15.6667 14.1609 17 11.954 17C9.74713 17 8.39847 15.6667 8 15" stroke="#1F1F1F" stroke-linecap="round" stroke-linejoin="round"/>
<path d="M14 10C14.1341 9.83333 14.5747 9.5 15.2644 9.5C15.954 9.5 16.3755 9.83333 16.5 10" stroke="#1F1F1F" stroke-linecap="round" stroke-linejoin="round"/>
<path d="M7.5 10C7.6341 9.83333 8.07471 9.5 8.76437 9.5C9.45402 9.5 9.87548 9.83333 10 10" stroke="#1F1F1F" stroke-linecap="round" stroke-linejoin="round"/>
</svg>
