<svg width="480" height="109" viewBox="0 0 480 109" fill="none" xmlns="http://www.w3.org/2000/svg">
<path d="M39.2 96L22 40H21.6C21.6667 41.3333 21.7667 43.3333 21.9 46C22.0333 48.6667 22.1667 51.5333 22.3 54.6C22.4333 57.6 22.5 60.3333 22.5 62.8V96H9V24.6H29.6L46.5 79.2H46.8L64.7 24.6H85.3V96H71.2V62.2C71.2 59.9333 71.2333 57.3333 71.3 54.4C71.4333 51.4667 71.5333 48.7 71.6 46.1C71.7333 43.4333 71.8333 41.4333 71.9 40.1H71.5L53.1 96H39.2Z" fill="#121212"/>
<path d="M257.2 96L240 40H239.6C239.667 41.3333 239.767 43.3333 239.9 46C240.033 48.6667 240.167 51.5333 240.3 54.6C240.433 57.6 240.5 60.3333 240.5 62.8V96H227V24.6H247.6L264.5 79.2H264.8L282.7 24.6H303.3V96H289.2V62.2C289.2 59.9333 289.233 57.3333 289.3 54.4C289.433 51.4667 289.533 48.7 289.6 46.1C289.733 43.4333 289.833 41.4333 289.9 40.1H289.5L271.1 96H257.2Z" fill="#121212"/>
<path d="M193.442 57.978C193.442 64.0093 192.679 69.4957 191.153 74.437C189.7 79.3057 187.447 83.5203 184.395 87.081C181.416 90.6417 177.564 93.3667 172.841 95.256C168.19 97.1453 162.704 98.09 156.382 98.09C150.06 98.09 144.537 97.1453 139.814 95.256C135.163 93.294 131.312 90.569 128.26 87.081C125.281 83.5203 123.028 79.2693 121.502 74.328C120.049 69.3867 119.322 63.9003 119.322 57.869C119.322 49.803 120.63 42.7907 123.246 36.832C125.935 30.8733 130.004 26.259 135.454 22.989C140.977 19.6463 147.989 17.975 156.491 17.975C164.92 17.975 171.86 19.6463 177.31 22.989C182.76 26.259 186.793 30.9097 189.409 36.941C192.098 42.8997 193.442 49.912 193.442 57.978ZM136.653 57.978C136.653 63.428 137.343 68.115 138.724 72.039C140.105 75.963 142.248 78.9787 145.155 81.086C148.062 83.1933 151.804 84.247 156.382 84.247C161.105 84.247 164.884 83.1933 167.718 81.086C170.625 78.9787 172.732 75.963 174.04 72.039C175.421 68.115 176.111 63.428 176.111 57.978C176.111 49.7667 174.585 43.3357 171.533 38.685C168.481 34.0343 163.467 31.709 156.491 31.709C151.84 31.709 148.062 32.7627 145.155 34.87C142.248 36.9773 140.105 39.993 138.724 43.917C137.343 47.841 136.653 52.528 136.653 57.978Z" fill="#121212"/>
<ellipse cx="157" cy="57" rx="25" ry="32" fill="#121212"/>
<path d="M411.442 57.978C411.442 64.0093 410.679 69.4957 409.153 74.437C407.7 79.3057 405.447 83.5203 402.395 87.081C399.416 90.6417 395.564 93.3667 390.841 95.256C386.19 97.1453 380.704 98.09 374.382 98.09C368.06 98.09 362.537 97.1453 357.814 95.256C353.163 93.294 349.312 90.569 346.26 87.081C343.281 83.5203 341.028 79.2693 339.502 74.328C338.049 69.3867 337.322 63.9003 337.322 57.869C337.322 49.803 338.63 42.7907 341.246 36.832C343.935 30.8733 348.004 26.259 353.454 22.989C358.977 19.6463 365.989 17.975 374.491 17.975C382.92 17.975 389.86 19.6463 395.31 22.989C400.76 26.259 404.793 30.9097 407.409 36.941C410.098 42.8997 411.442 49.912 411.442 57.978ZM354.653 57.978C354.653 63.428 355.343 68.115 356.724 72.039C358.105 75.963 360.248 78.9787 363.155 81.086C366.062 83.1933 369.804 84.247 374.382 84.247C379.105 84.247 382.884 83.1933 385.718 81.086C388.625 78.9787 390.732 75.963 392.04 72.039C393.421 68.115 394.111 63.428 394.111 57.978C394.111 49.7667 392.585 43.3357 389.533 38.685C386.481 34.0343 381.467 31.709 374.491 31.709C369.84 31.709 366.062 32.7627 363.155 34.87C360.248 36.9773 358.105 39.993 356.724 43.917C355.343 47.841 354.653 52.528 354.653 57.978Z" fill="#121212"/>
<ellipse cx="375" cy="57" rx="25" ry="32" fill="#121212"/>
<path fill-rule="evenodd" clip-rule="evenodd" d="M480 17.9771C479.831 17.9757 479.661 17.975 479.491 17.975C470.989 17.975 463.977 19.6463 458.454 22.989C453.004 26.259 448.935 30.8733 446.246 36.832C443.63 42.7907 442.322 49.803 442.322 57.869C442.322 63.9003 443.049 69.3867 444.502 74.328C446.028 79.2693 448.281 83.5203 451.26 87.081C454.312 90.569 458.163 93.294 462.814 95.256C467.537 97.1453 473.06 98.09 479.382 98.09C479.589 98.09 479.795 98.089 480 98.087V84.2409C479.796 84.245 479.59 84.247 479.382 84.247C474.804 84.247 471.062 83.1933 468.155 81.086C465.248 78.9787 463.105 75.963 461.724 72.039C460.343 68.115 459.653 63.428 459.653 57.978C459.653 52.528 460.343 47.841 461.724 43.917C463.105 39.993 465.248 36.9773 468.155 34.87C471.062 32.7627 474.84 31.709 479.491 31.709C479.662 31.709 479.832 31.7104 480 31.7132V17.9771Z" fill="#121212"/>
<path d="M480 91V28.5H479C477.333 27.1667 473.7 24.5 472.5 24.5C471 24.5 459.5 36 458 37.5C456.8 38.7 452.833 50 451 55.5L459.5 76.5L480 91Z" fill="#121212"/>
</svg>
